<mxfile host="Electron" modified="2024-08-05T23:40:22.284Z" agent="Mozilla/5.0 (Macintosh; Intel Mac OS X 10_15_7) AppleWebKit/537.36 (KHTML, like Gecko) draw.io/24.6.4 Chrome/124.0.6367.207 Electron/30.0.6 Safari/537.36" etag="6pcsGbsEVEggUWtqcCRY" version="24.6.4" type="device">
  <diagram name="페이지-1" id="qEl5ddPEBkMz_QxOdB6-">
    <mxGraphModel dx="1062" dy="672" grid="1" gridSize="10" guides="1" tooltips="1" connect="1" arrows="1" fold="1" page="1" pageScale="1" pageWidth="827" pageHeight="1169" math="0" shadow="0">
      <root>
        <mxCell id="0" />
        <mxCell id="1" parent="0" />
        <mxCell id="hre2dM0irP94GwuMB2xc-1" value="" style="rounded=0;whiteSpace=wrap;html=1;strokeColor=#1d2add;" parent="1" vertex="1">
          <mxGeometry x="120" y="260" width="590" height="350" as="geometry" />
        </mxCell>
        <mxCell id="hre2dM0irP94GwuMB2xc-2" value="멀티 프로세스(멀티 태스킹)" style="text;strokeColor=none;fillColor=none;align=center;verticalAlign=middle;spacingLeft=4;spacingRight=4;overflow=hidden;points=[[0,0.5],[1,0.5]];portConstraint=eastwest;rotatable=0;whiteSpace=wrap;html=1;fontStyle=1;fontSize=16;" parent="1" vertex="1">
          <mxGeometry x="310" y="280" width="210" height="30" as="geometry" />
        </mxCell>
        <mxCell id="hre2dM0irP94GwuMB2xc-3" value="" style="rounded=0;whiteSpace=wrap;html=1;strokeWidth=2;fillColor=#dae8fc;strokeColor=#6c8ebf;" parent="1" vertex="1">
          <mxGeometry x="165" y="360" width="185" height="220" as="geometry" />
        </mxCell>
        <mxCell id="hre2dM0irP94GwuMB2xc-4" value="" style="rounded=0;whiteSpace=wrap;html=1;strokeWidth=2;fillColor=#dae8fc;strokeColor=#6c8ebf;" parent="1" vertex="1">
          <mxGeometry x="366" y="360" width="95" height="220" as="geometry" />
        </mxCell>
        <mxCell id="hre2dM0irP94GwuMB2xc-5" value="" style="rounded=0;whiteSpace=wrap;html=1;strokeWidth=2;fillColor=#dae8fc;strokeColor=#6c8ebf;" parent="1" vertex="1">
          <mxGeometry x="480" y="360" width="185" height="220" as="geometry" />
        </mxCell>
        <mxCell id="hre2dM0irP94GwuMB2xc-6" value="프로세스 1" style="text;strokeColor=none;fillColor=none;align=center;verticalAlign=middle;spacingLeft=4;spacingRight=4;overflow=hidden;points=[[0,0.5],[1,0.5]];portConstraint=eastwest;rotatable=0;whiteSpace=wrap;html=1;fontStyle=1;fontSize=16;" parent="1" vertex="1">
          <mxGeometry x="165" y="330" width="85" height="30" as="geometry" />
        </mxCell>
        <mxCell id="hre2dM0irP94GwuMB2xc-7" value="프로세스 2" style="text;strokeColor=none;fillColor=none;align=center;verticalAlign=middle;spacingLeft=4;spacingRight=4;overflow=hidden;points=[[0,0.5],[1,0.5]];portConstraint=eastwest;rotatable=0;whiteSpace=wrap;html=1;fontStyle=1;fontSize=16;" parent="1" vertex="1">
          <mxGeometry x="365" y="330" width="85" height="30" as="geometry" />
        </mxCell>
        <mxCell id="hre2dM0irP94GwuMB2xc-8" value="프로세스 3" style="text;strokeColor=none;fillColor=none;align=center;verticalAlign=middle;spacingLeft=4;spacingRight=4;overflow=hidden;points=[[0,0.5],[1,0.5]];portConstraint=eastwest;rotatable=0;whiteSpace=wrap;html=1;fontStyle=1;fontSize=16;" parent="1" vertex="1">
          <mxGeometry x="480" y="330" width="85" height="30" as="geometry" />
        </mxCell>
        <mxCell id="hre2dM0irP94GwuMB2xc-9" value="멀티쓰레드" style="text;strokeColor=none;fillColor=none;align=center;verticalAlign=middle;spacingLeft=4;spacingRight=4;overflow=hidden;points=[[0,0.5],[1,0.5]];portConstraint=eastwest;rotatable=0;whiteSpace=wrap;html=1;fontStyle=1;fontSize=13;" parent="1" vertex="1">
          <mxGeometry x="210" y="360" width="85" height="30" as="geometry" />
        </mxCell>
        <mxCell id="hre2dM0irP94GwuMB2xc-10" value="싱글쓰레드" style="text;strokeColor=none;fillColor=none;align=center;verticalAlign=middle;spacingLeft=4;spacingRight=4;overflow=hidden;points=[[0,0.5],[1,0.5]];portConstraint=eastwest;rotatable=0;whiteSpace=wrap;html=1;fontStyle=1;fontSize=13;" parent="1" vertex="1">
          <mxGeometry x="371" y="360" width="85" height="30" as="geometry" />
        </mxCell>
        <mxCell id="hre2dM0irP94GwuMB2xc-11" value="멀티쓰레드" style="text;strokeColor=none;fillColor=none;align=center;verticalAlign=middle;spacingLeft=4;spacingRight=4;overflow=hidden;points=[[0,0.5],[1,0.5]];portConstraint=eastwest;rotatable=0;whiteSpace=wrap;html=1;fontStyle=1;fontSize=13;" parent="1" vertex="1">
          <mxGeometry x="530" y="360" width="85" height="30" as="geometry" />
        </mxCell>
        <mxCell id="hre2dM0irP94GwuMB2xc-14" value="" style="group" parent="1" vertex="1" connectable="0">
          <mxGeometry x="384" y="390" width="59" height="180" as="geometry" />
        </mxCell>
        <mxCell id="hre2dM0irP94GwuMB2xc-12" value="" style="rounded=0;whiteSpace=wrap;html=1;" parent="hre2dM0irP94GwuMB2xc-14" vertex="1">
          <mxGeometry width="59" height="180" as="geometry" />
        </mxCell>
        <mxCell id="hre2dM0irP94GwuMB2xc-13" value="" style="shape=flexArrow;endArrow=classic;html=1;rounded=0;fillColor=#dae8fc;strokeColor=#6c8ebf;" parent="hre2dM0irP94GwuMB2xc-14" edge="1">
          <mxGeometry width="50" height="50" relative="1" as="geometry">
            <mxPoint x="31" y="20" as="sourcePoint" />
            <mxPoint x="30.5" y="170" as="targetPoint" />
          </mxGeometry>
        </mxCell>
        <mxCell id="hre2dM0irP94GwuMB2xc-15" value="" style="group" parent="1" vertex="1" connectable="0">
          <mxGeometry x="190" y="390" width="59" height="180" as="geometry" />
        </mxCell>
        <mxCell id="hre2dM0irP94GwuMB2xc-16" value="" style="rounded=0;whiteSpace=wrap;html=1;" parent="hre2dM0irP94GwuMB2xc-15" vertex="1">
          <mxGeometry width="59" height="180" as="geometry" />
        </mxCell>
        <mxCell id="hre2dM0irP94GwuMB2xc-17" value="" style="shape=flexArrow;endArrow=classic;html=1;rounded=0;fillColor=#dae8fc;strokeColor=#6c8ebf;" parent="hre2dM0irP94GwuMB2xc-15" edge="1">
          <mxGeometry width="50" height="50" relative="1" as="geometry">
            <mxPoint x="31" y="20" as="sourcePoint" />
            <mxPoint x="30.5" y="170" as="targetPoint" />
          </mxGeometry>
        </mxCell>
        <mxCell id="hre2dM0irP94GwuMB2xc-18" value="" style="group" parent="1" vertex="1" connectable="0">
          <mxGeometry x="270" y="390" width="59" height="180" as="geometry" />
        </mxCell>
        <mxCell id="hre2dM0irP94GwuMB2xc-19" value="" style="rounded=0;whiteSpace=wrap;html=1;" parent="hre2dM0irP94GwuMB2xc-18" vertex="1">
          <mxGeometry width="59" height="180" as="geometry" />
        </mxCell>
        <mxCell id="hre2dM0irP94GwuMB2xc-20" value="" style="shape=flexArrow;endArrow=classic;html=1;rounded=0;fillColor=#dae8fc;strokeColor=#6c8ebf;" parent="hre2dM0irP94GwuMB2xc-18" edge="1">
          <mxGeometry width="50" height="50" relative="1" as="geometry">
            <mxPoint x="31" y="20" as="sourcePoint" />
            <mxPoint x="30.5" y="170" as="targetPoint" />
          </mxGeometry>
        </mxCell>
        <mxCell id="hre2dM0irP94GwuMB2xc-21" value="" style="group" parent="1" vertex="1" connectable="0">
          <mxGeometry x="500" y="390" width="59" height="180" as="geometry" />
        </mxCell>
        <mxCell id="hre2dM0irP94GwuMB2xc-22" value="" style="rounded=0;whiteSpace=wrap;html=1;" parent="hre2dM0irP94GwuMB2xc-21" vertex="1">
          <mxGeometry width="59" height="180" as="geometry" />
        </mxCell>
        <mxCell id="hre2dM0irP94GwuMB2xc-23" value="" style="shape=flexArrow;endArrow=classic;html=1;rounded=0;fillColor=#dae8fc;strokeColor=#6c8ebf;" parent="hre2dM0irP94GwuMB2xc-21" edge="1">
          <mxGeometry width="50" height="50" relative="1" as="geometry">
            <mxPoint x="31" y="20" as="sourcePoint" />
            <mxPoint x="30.5" y="170" as="targetPoint" />
          </mxGeometry>
        </mxCell>
        <mxCell id="hre2dM0irP94GwuMB2xc-24" value="" style="group" parent="1" vertex="1" connectable="0">
          <mxGeometry x="580" y="390" width="59" height="180" as="geometry" />
        </mxCell>
        <mxCell id="hre2dM0irP94GwuMB2xc-25" value="" style="rounded=0;whiteSpace=wrap;html=1;" parent="hre2dM0irP94GwuMB2xc-24" vertex="1">
          <mxGeometry width="59" height="180" as="geometry" />
        </mxCell>
        <mxCell id="hre2dM0irP94GwuMB2xc-26" value="" style="shape=flexArrow;endArrow=classic;html=1;rounded=0;fillColor=#dae8fc;strokeColor=#6c8ebf;" parent="hre2dM0irP94GwuMB2xc-24" edge="1">
          <mxGeometry width="50" height="50" relative="1" as="geometry">
            <mxPoint x="31" y="20" as="sourcePoint" />
            <mxPoint x="30.5" y="170" as="targetPoint" />
          </mxGeometry>
        </mxCell>
        <mxCell id="xHzaHETszeEgxkePYiCe-1" value="" style="rounded=0;whiteSpace=wrap;html=1;strokeColor=#1d2add;" vertex="1" parent="1">
          <mxGeometry x="120" y="680" width="130" height="330" as="geometry" />
        </mxCell>
        <mxCell id="xHzaHETszeEgxkePYiCe-2" value="싱글 쓰레드" style="text;strokeColor=none;fillColor=none;align=center;verticalAlign=middle;spacingLeft=4;spacingRight=4;overflow=hidden;points=[[0,0.5],[1,0.5]];portConstraint=eastwest;rotatable=0;whiteSpace=wrap;html=1;fontStyle=1;fontSize=16;" vertex="1" parent="1">
          <mxGeometry x="140" y="691" width="90" height="30" as="geometry" />
        </mxCell>
        <mxCell id="xHzaHETszeEgxkePYiCe-4" value="" style="rounded=0;whiteSpace=wrap;html=1;strokeWidth=2;fillColor=#dae8fc;strokeColor=#6c8ebf;" vertex="1" parent="1">
          <mxGeometry x="137.5" y="750" width="95" height="250" as="geometry" />
        </mxCell>
        <mxCell id="xHzaHETszeEgxkePYiCe-7" value="프로세스" style="text;strokeColor=none;fillColor=none;align=center;verticalAlign=middle;spacingLeft=4;spacingRight=4;overflow=hidden;points=[[0,0.5],[1,0.5]];portConstraint=eastwest;rotatable=0;whiteSpace=wrap;html=1;fontStyle=1;fontSize=16;" vertex="1" parent="1">
          <mxGeometry x="142.5" y="720" width="85" height="30" as="geometry" />
        </mxCell>
        <mxCell id="xHzaHETszeEgxkePYiCe-10" value="메인쓰레드" style="text;strokeColor=none;fillColor=none;align=center;verticalAlign=middle;spacingLeft=4;spacingRight=4;overflow=hidden;points=[[0,0.5],[1,0.5]];portConstraint=eastwest;rotatable=0;whiteSpace=wrap;html=1;fontStyle=1;fontSize=13;" vertex="1" parent="1">
          <mxGeometry x="142.5" y="970" width="85" height="30" as="geometry" />
        </mxCell>
        <mxCell id="xHzaHETszeEgxkePYiCe-33" style="edgeStyle=orthogonalEdgeStyle;rounded=0;orthogonalLoop=1;jettySize=auto;html=1;exitX=0.5;exitY=1;exitDx=0;exitDy=0;strokeColor=#3333FF;" edge="1" parent="1" source="xHzaHETszeEgxkePYiCe-28" target="xHzaHETszeEgxkePYiCe-30">
          <mxGeometry relative="1" as="geometry" />
        </mxCell>
        <mxCell id="xHzaHETszeEgxkePYiCe-28" value="코드" style="rounded=0;whiteSpace=wrap;html=1;" vertex="1" parent="1">
          <mxGeometry x="155.5" y="760" width="59" height="30" as="geometry" />
        </mxCell>
        <mxCell id="xHzaHETszeEgxkePYiCe-35" value="" style="edgeStyle=orthogonalEdgeStyle;rounded=0;orthogonalLoop=1;jettySize=auto;html=1;entryX=0.5;entryY=0;entryDx=0;entryDy=0;strokeColor=#3333FF;" edge="1" parent="1" source="xHzaHETszeEgxkePYiCe-30" target="xHzaHETszeEgxkePYiCe-31">
          <mxGeometry relative="1" as="geometry" />
        </mxCell>
        <mxCell id="xHzaHETszeEgxkePYiCe-30" value="코드" style="rounded=0;whiteSpace=wrap;html=1;" vertex="1" parent="1">
          <mxGeometry x="155.5" y="817" width="59" height="30" as="geometry" />
        </mxCell>
        <mxCell id="xHzaHETszeEgxkePYiCe-36" style="edgeStyle=orthogonalEdgeStyle;rounded=0;orthogonalLoop=1;jettySize=auto;html=1;strokeColor=#3333FF;" edge="1" parent="1" source="xHzaHETszeEgxkePYiCe-31" target="xHzaHETszeEgxkePYiCe-32">
          <mxGeometry relative="1" as="geometry" />
        </mxCell>
        <mxCell id="xHzaHETszeEgxkePYiCe-31" value="코드" style="rounded=0;whiteSpace=wrap;html=1;" vertex="1" parent="1">
          <mxGeometry x="155.5" y="873" width="59" height="30" as="geometry" />
        </mxCell>
        <mxCell id="xHzaHETszeEgxkePYiCe-32" value="코드" style="rounded=0;whiteSpace=wrap;html=1;" vertex="1" parent="1">
          <mxGeometry x="155.5" y="930" width="59" height="30" as="geometry" />
        </mxCell>
        <mxCell id="xHzaHETszeEgxkePYiCe-37" value="" style="rounded=0;whiteSpace=wrap;html=1;strokeColor=#1d2add;" vertex="1" parent="1">
          <mxGeometry x="280" y="680" width="420" height="330" as="geometry" />
        </mxCell>
        <mxCell id="xHzaHETszeEgxkePYiCe-38" value="멀티 쓰레드" style="text;strokeColor=none;fillColor=none;align=center;verticalAlign=middle;spacingLeft=4;spacingRight=4;overflow=hidden;points=[[0,0.5],[1,0.5]];portConstraint=eastwest;rotatable=0;whiteSpace=wrap;html=1;fontStyle=1;fontSize=16;" vertex="1" parent="1">
          <mxGeometry x="300" y="691" width="90" height="30" as="geometry" />
        </mxCell>
        <mxCell id="xHzaHETszeEgxkePYiCe-59" value="" style="rounded=0;whiteSpace=wrap;html=1;strokeWidth=2;fillColor=#dae8fc;strokeColor=#6c8ebf;" vertex="1" parent="1">
          <mxGeometry x="300" y="750" width="95" height="250" as="geometry" />
        </mxCell>
        <mxCell id="xHzaHETszeEgxkePYiCe-60" value="프로세스" style="text;strokeColor=none;fillColor=none;align=center;verticalAlign=middle;spacingLeft=4;spacingRight=4;overflow=hidden;points=[[0,0.5],[1,0.5]];portConstraint=eastwest;rotatable=0;whiteSpace=wrap;html=1;fontStyle=1;fontSize=16;" vertex="1" parent="1">
          <mxGeometry x="305" y="720" width="85" height="30" as="geometry" />
        </mxCell>
        <mxCell id="xHzaHETszeEgxkePYiCe-61" value="메인쓰레드" style="text;strokeColor=none;fillColor=none;align=center;verticalAlign=middle;spacingLeft=4;spacingRight=4;overflow=hidden;points=[[0,0.5],[1,0.5]];portConstraint=eastwest;rotatable=0;whiteSpace=wrap;html=1;fontStyle=1;fontSize=13;" vertex="1" parent="1">
          <mxGeometry x="305" y="970" width="85" height="30" as="geometry" />
        </mxCell>
        <mxCell id="xHzaHETszeEgxkePYiCe-62" style="edgeStyle=orthogonalEdgeStyle;rounded=0;orthogonalLoop=1;jettySize=auto;html=1;exitX=0.5;exitY=1;exitDx=0;exitDy=0;strokeColor=#3333FF;" edge="1" parent="1" source="xHzaHETszeEgxkePYiCe-63" target="xHzaHETszeEgxkePYiCe-65">
          <mxGeometry relative="1" as="geometry" />
        </mxCell>
        <mxCell id="xHzaHETszeEgxkePYiCe-81" style="edgeStyle=orthogonalEdgeStyle;rounded=0;orthogonalLoop=1;jettySize=auto;html=1;exitX=1;exitY=0.5;exitDx=0;exitDy=0;entryX=0.5;entryY=0;entryDx=0;entryDy=0;strokeColor=#3333FF;align=center;verticalAlign=middle;fontFamily=Helvetica;fontSize=11;fontColor=default;labelBackgroundColor=default;endArrow=classic;" edge="1" parent="1" source="xHzaHETszeEgxkePYiCe-63" target="xHzaHETszeEgxkePYiCe-71">
          <mxGeometry relative="1" as="geometry" />
        </mxCell>
        <mxCell id="xHzaHETszeEgxkePYiCe-63" value="코드" style="rounded=0;whiteSpace=wrap;html=1;" vertex="1" parent="1">
          <mxGeometry x="318" y="760" width="59" height="30" as="geometry" />
        </mxCell>
        <mxCell id="xHzaHETszeEgxkePYiCe-64" value="" style="edgeStyle=orthogonalEdgeStyle;rounded=0;orthogonalLoop=1;jettySize=auto;html=1;entryX=0.5;entryY=0;entryDx=0;entryDy=0;strokeColor=#3333FF;" edge="1" parent="1" source="xHzaHETszeEgxkePYiCe-65" target="xHzaHETszeEgxkePYiCe-67">
          <mxGeometry relative="1" as="geometry" />
        </mxCell>
        <mxCell id="xHzaHETszeEgxkePYiCe-65" value="코드" style="rounded=0;whiteSpace=wrap;html=1;" vertex="1" parent="1">
          <mxGeometry x="318" y="817" width="59" height="30" as="geometry" />
        </mxCell>
        <mxCell id="xHzaHETszeEgxkePYiCe-66" style="edgeStyle=orthogonalEdgeStyle;rounded=0;orthogonalLoop=1;jettySize=auto;html=1;strokeColor=#3333FF;" edge="1" parent="1" source="xHzaHETszeEgxkePYiCe-67" target="xHzaHETszeEgxkePYiCe-68">
          <mxGeometry relative="1" as="geometry" />
        </mxCell>
        <mxCell id="xHzaHETszeEgxkePYiCe-67" value="코드" style="rounded=0;whiteSpace=wrap;html=1;" vertex="1" parent="1">
          <mxGeometry x="318" y="873" width="59" height="30" as="geometry" />
        </mxCell>
        <mxCell id="xHzaHETszeEgxkePYiCe-68" value="코드" style="rounded=0;whiteSpace=wrap;html=1;" vertex="1" parent="1">
          <mxGeometry x="318" y="930" width="59" height="30" as="geometry" />
        </mxCell>
        <mxCell id="xHzaHETszeEgxkePYiCe-69" value="" style="rounded=0;whiteSpace=wrap;html=1;strokeWidth=2;fillColor=#dae8fc;strokeColor=#6c8ebf;" vertex="1" parent="1">
          <mxGeometry x="590" y="800" width="95" height="200" as="geometry" />
        </mxCell>
        <mxCell id="xHzaHETszeEgxkePYiCe-70" value="" style="rounded=0;whiteSpace=wrap;html=1;strokeWidth=2;fillColor=#dae8fc;strokeColor=#6c8ebf;" vertex="1" parent="1">
          <mxGeometry x="445" y="860" width="95" height="140" as="geometry" />
        </mxCell>
        <mxCell id="xHzaHETszeEgxkePYiCe-78" value="" style="edgeStyle=orthogonalEdgeStyle;rounded=0;orthogonalLoop=1;jettySize=auto;html=1;entryX=0.5;entryY=0;entryDx=0;entryDy=0;strokeColor=#3333FF;align=center;verticalAlign=middle;fontFamily=Helvetica;fontSize=11;fontColor=default;labelBackgroundColor=default;endArrow=classic;" edge="1" parent="1" source="xHzaHETszeEgxkePYiCe-71" target="xHzaHETszeEgxkePYiCe-72">
          <mxGeometry relative="1" as="geometry" />
        </mxCell>
        <mxCell id="xHzaHETszeEgxkePYiCe-71" value="코드" style="rounded=0;whiteSpace=wrap;html=1;" vertex="1" parent="1">
          <mxGeometry x="608" y="817" width="59" height="30" as="geometry" />
        </mxCell>
        <mxCell id="xHzaHETszeEgxkePYiCe-77" value="" style="edgeStyle=orthogonalEdgeStyle;rounded=0;orthogonalLoop=1;jettySize=auto;html=1;strokeColor=#3333FF;align=center;verticalAlign=middle;fontFamily=Helvetica;fontSize=11;fontColor=default;labelBackgroundColor=default;endArrow=classic;" edge="1" parent="1" source="xHzaHETszeEgxkePYiCe-72" target="xHzaHETszeEgxkePYiCe-73">
          <mxGeometry relative="1" as="geometry" />
        </mxCell>
        <mxCell id="xHzaHETszeEgxkePYiCe-72" value="코드" style="rounded=0;whiteSpace=wrap;html=1;" vertex="1" parent="1">
          <mxGeometry x="608" y="873" width="59" height="30" as="geometry" />
        </mxCell>
        <mxCell id="xHzaHETszeEgxkePYiCe-73" value="코드" style="rounded=0;whiteSpace=wrap;html=1;" vertex="1" parent="1">
          <mxGeometry x="608" y="930" width="59" height="30" as="geometry" />
        </mxCell>
        <mxCell id="xHzaHETszeEgxkePYiCe-76" value="" style="edgeStyle=orthogonalEdgeStyle;rounded=0;orthogonalLoop=1;jettySize=auto;html=1;strokeColor=#3333FF;align=center;verticalAlign=middle;fontFamily=Helvetica;fontSize=11;fontColor=default;labelBackgroundColor=default;endArrow=classic;" edge="1" parent="1" source="xHzaHETszeEgxkePYiCe-74" target="xHzaHETszeEgxkePYiCe-75">
          <mxGeometry relative="1" as="geometry" />
        </mxCell>
        <mxCell id="xHzaHETszeEgxkePYiCe-74" value="코드" style="rounded=0;whiteSpace=wrap;html=1;" vertex="1" parent="1">
          <mxGeometry x="461" y="873" width="59" height="30" as="geometry" />
        </mxCell>
        <mxCell id="xHzaHETszeEgxkePYiCe-75" value="코드" style="rounded=0;whiteSpace=wrap;html=1;" vertex="1" parent="1">
          <mxGeometry x="461" y="930" width="59" height="30" as="geometry" />
        </mxCell>
        <mxCell id="xHzaHETszeEgxkePYiCe-79" value="작업쓰레드2" style="text;strokeColor=none;fillColor=none;align=center;verticalAlign=middle;spacingLeft=4;spacingRight=4;overflow=hidden;points=[[0,0.5],[1,0.5]];portConstraint=eastwest;rotatable=0;whiteSpace=wrap;html=1;fontStyle=1;fontSize=13;" vertex="1" parent="1">
          <mxGeometry x="451" y="970" width="85" height="30" as="geometry" />
        </mxCell>
        <mxCell id="xHzaHETszeEgxkePYiCe-80" value="작업쓰레드1" style="text;strokeColor=none;fillColor=none;align=center;verticalAlign=middle;spacingLeft=4;spacingRight=4;overflow=hidden;points=[[0,0.5],[1,0.5]];portConstraint=eastwest;rotatable=0;whiteSpace=wrap;html=1;fontStyle=1;fontSize=13;" vertex="1" parent="1">
          <mxGeometry x="595" y="970" width="85" height="30" as="geometry" />
        </mxCell>
        <mxCell id="xHzaHETszeEgxkePYiCe-82" style="edgeStyle=orthogonalEdgeStyle;rounded=0;orthogonalLoop=1;jettySize=auto;html=1;exitX=1;exitY=0.5;exitDx=0;exitDy=0;entryX=0.5;entryY=0;entryDx=0;entryDy=0;strokeColor=#3333FF;align=center;verticalAlign=middle;fontFamily=Helvetica;fontSize=11;fontColor=default;labelBackgroundColor=default;endArrow=classic;" edge="1" parent="1" source="xHzaHETszeEgxkePYiCe-65" target="xHzaHETszeEgxkePYiCe-74">
          <mxGeometry relative="1" as="geometry" />
        </mxCell>
        <mxCell id="xHzaHETszeEgxkePYiCe-102" style="edgeStyle=orthogonalEdgeStyle;rounded=0;orthogonalLoop=1;jettySize=auto;html=1;entryX=0.5;entryY=0;entryDx=0;entryDy=0;" edge="1" parent="1" source="xHzaHETszeEgxkePYiCe-83" target="xHzaHETszeEgxkePYiCe-94">
          <mxGeometry relative="1" as="geometry">
            <Array as="points">
              <mxPoint x="1107" y="340" />
              <mxPoint x="967" y="340" />
            </Array>
          </mxGeometry>
        </mxCell>
        <mxCell id="xHzaHETszeEgxkePYiCe-105" value="메인작업" style="edgeLabel;html=1;align=center;verticalAlign=middle;resizable=0;points=[];" vertex="1" connectable="0" parent="xHzaHETszeEgxkePYiCe-102">
          <mxGeometry x="-0.1324" relative="1" as="geometry">
            <mxPoint as="offset" />
          </mxGeometry>
        </mxCell>
        <mxCell id="xHzaHETszeEgxkePYiCe-103" style="edgeStyle=orthogonalEdgeStyle;rounded=0;orthogonalLoop=1;jettySize=auto;html=1;entryX=0.5;entryY=0;entryDx=0;entryDy=0;" edge="1" parent="1" source="xHzaHETszeEgxkePYiCe-83" target="xHzaHETszeEgxkePYiCe-97">
          <mxGeometry relative="1" as="geometry" />
        </mxCell>
        <mxCell id="xHzaHETszeEgxkePYiCe-107" value="작업1" style="edgeLabel;html=1;align=center;verticalAlign=middle;resizable=0;points=[];" vertex="1" connectable="0" parent="xHzaHETszeEgxkePYiCe-103">
          <mxGeometry x="0.2301" relative="1" as="geometry">
            <mxPoint as="offset" />
          </mxGeometry>
        </mxCell>
        <mxCell id="xHzaHETszeEgxkePYiCe-104" style="edgeStyle=orthogonalEdgeStyle;rounded=0;orthogonalLoop=1;jettySize=auto;html=1;entryX=0.5;entryY=0;entryDx=0;entryDy=0;" edge="1" parent="1" source="xHzaHETszeEgxkePYiCe-83" target="xHzaHETszeEgxkePYiCe-100">
          <mxGeometry relative="1" as="geometry">
            <Array as="points">
              <mxPoint x="1107" y="340" />
              <mxPoint x="1241" y="340" />
            </Array>
          </mxGeometry>
        </mxCell>
        <mxCell id="xHzaHETszeEgxkePYiCe-106" value="작업2" style="edgeLabel;html=1;align=center;verticalAlign=middle;resizable=0;points=[];" vertex="1" connectable="0" parent="xHzaHETszeEgxkePYiCe-104">
          <mxGeometry x="-0.0988" relative="1" as="geometry">
            <mxPoint as="offset" />
          </mxGeometry>
        </mxCell>
        <mxCell id="xHzaHETszeEgxkePYiCe-83" value="" style="rounded=0;whiteSpace=wrap;html=1;strokeWidth=2;fillColor=#dae8fc;strokeColor=#6c8ebf;container=0;" vertex="1" parent="1">
          <mxGeometry x="1060" y="290" width="95" height="35" as="geometry" />
        </mxCell>
        <mxCell id="xHzaHETszeEgxkePYiCe-84" value="메인쓰레드" style="text;strokeColor=none;fillColor=none;align=center;verticalAlign=middle;spacingLeft=4;spacingRight=4;overflow=hidden;points=[[0,0.5],[1,0.5]];portConstraint=eastwest;rotatable=0;whiteSpace=wrap;html=1;fontStyle=1;fontSize=13;container=0;" vertex="1" parent="1">
          <mxGeometry x="1065" y="292.5" width="85" height="30" as="geometry" />
        </mxCell>
        <mxCell id="xHzaHETszeEgxkePYiCe-94" value="" style="rounded=0;whiteSpace=wrap;html=1;strokeWidth=2;fillColor=#dae8fc;strokeColor=#6c8ebf;container=0;" vertex="1" parent="1">
          <mxGeometry x="920" y="380" width="95" height="35" as="geometry" />
        </mxCell>
        <mxCell id="xHzaHETszeEgxkePYiCe-95" value="메인쓰레드" style="text;strokeColor=none;fillColor=none;align=center;verticalAlign=middle;spacingLeft=4;spacingRight=4;overflow=hidden;points=[[0,0.5],[1,0.5]];portConstraint=eastwest;rotatable=0;whiteSpace=wrap;html=1;fontStyle=1;fontSize=13;container=0;" vertex="1" parent="1">
          <mxGeometry x="925" y="382.5" width="85" height="30" as="geometry" />
        </mxCell>
        <mxCell id="xHzaHETszeEgxkePYiCe-97" value="" style="rounded=0;whiteSpace=wrap;html=1;strokeWidth=2;fillColor=#dae8fc;strokeColor=#6c8ebf;container=0;" vertex="1" parent="1">
          <mxGeometry x="1060" y="380" width="95" height="35" as="geometry" />
        </mxCell>
        <mxCell id="xHzaHETszeEgxkePYiCe-98" value="쓰레드1" style="text;strokeColor=none;fillColor=none;align=center;verticalAlign=middle;spacingLeft=4;spacingRight=4;overflow=hidden;points=[[0,0.5],[1,0.5]];portConstraint=eastwest;rotatable=0;whiteSpace=wrap;html=1;fontStyle=1;fontSize=13;container=0;" vertex="1" parent="1">
          <mxGeometry x="1065" y="382.5" width="85" height="30" as="geometry" />
        </mxCell>
        <mxCell id="xHzaHETszeEgxkePYiCe-100" value="" style="rounded=0;whiteSpace=wrap;html=1;strokeWidth=2;fillColor=#dae8fc;strokeColor=#6c8ebf;container=0;" vertex="1" parent="1">
          <mxGeometry x="1193" y="380" width="95" height="35" as="geometry" />
        </mxCell>
        <mxCell id="xHzaHETszeEgxkePYiCe-101" value="쓰레드2" style="text;strokeColor=none;fillColor=none;align=center;verticalAlign=middle;spacingLeft=4;spacingRight=4;overflow=hidden;points=[[0,0.5],[1,0.5]];portConstraint=eastwest;rotatable=0;whiteSpace=wrap;html=1;fontStyle=1;fontSize=13;container=0;" vertex="1" parent="1">
          <mxGeometry x="1198" y="382.5" width="85" height="30" as="geometry" />
        </mxCell>
        <mxCell id="xHzaHETszeEgxkePYiCe-120" style="edgeStyle=orthogonalEdgeStyle;rounded=0;orthogonalLoop=1;jettySize=auto;html=1;entryX=0;entryY=0.5;entryDx=0;entryDy=0;" edge="1" parent="1" source="xHzaHETszeEgxkePYiCe-108" target="xHzaHETszeEgxkePYiCe-110">
          <mxGeometry relative="1" as="geometry" />
        </mxCell>
        <mxCell id="xHzaHETszeEgxkePYiCe-126" value="start()" style="edgeLabel;html=1;align=center;verticalAlign=middle;resizable=0;points=[];" vertex="1" connectable="0" parent="xHzaHETszeEgxkePYiCe-120">
          <mxGeometry x="-0.0571" relative="1" as="geometry">
            <mxPoint y="-15" as="offset" />
          </mxGeometry>
        </mxCell>
        <mxCell id="xHzaHETszeEgxkePYiCe-108" value="" style="rounded=0;whiteSpace=wrap;html=1;strokeWidth=2;fillColor=#dae8fc;strokeColor=#6c8ebf;container=0;" vertex="1" parent="1">
          <mxGeometry x="910" y="556" width="95" height="35" as="geometry" />
        </mxCell>
        <mxCell id="xHzaHETszeEgxkePYiCe-109" value="NEW" style="text;strokeColor=none;fillColor=none;align=center;verticalAlign=middle;spacingLeft=4;spacingRight=4;overflow=hidden;points=[[0,0.5],[1,0.5]];portConstraint=eastwest;rotatable=0;whiteSpace=wrap;html=1;fontStyle=1;fontSize=13;container=0;" vertex="1" parent="1">
          <mxGeometry x="915" y="558.5" width="85" height="30" as="geometry" />
        </mxCell>
        <mxCell id="xHzaHETszeEgxkePYiCe-121" style="edgeStyle=orthogonalEdgeStyle;rounded=0;orthogonalLoop=1;jettySize=auto;html=1;entryX=0;entryY=0.75;entryDx=0;entryDy=0;exitX=0.25;exitY=1;exitDx=0;exitDy=0;" edge="1" parent="1" source="xHzaHETszeEgxkePYiCe-110" target="xHzaHETszeEgxkePYiCe-112">
          <mxGeometry relative="1" as="geometry" />
        </mxCell>
        <mxCell id="xHzaHETszeEgxkePYiCe-127" value="run()" style="edgeLabel;html=1;align=center;verticalAlign=middle;resizable=0;points=[];" vertex="1" connectable="0" parent="xHzaHETszeEgxkePYiCe-121">
          <mxGeometry x="0.2792" y="-1" relative="1" as="geometry">
            <mxPoint x="-9" y="8" as="offset" />
          </mxGeometry>
        </mxCell>
        <mxCell id="xHzaHETszeEgxkePYiCe-110" value="" style="rounded=0;whiteSpace=wrap;html=1;strokeWidth=2;fillColor=#dae8fc;strokeColor=#6c8ebf;container=0;" vertex="1" parent="1">
          <mxGeometry x="1075" y="556" width="95" height="35" as="geometry" />
        </mxCell>
        <mxCell id="xHzaHETszeEgxkePYiCe-111" value="RUNNABLE" style="text;strokeColor=none;fillColor=none;align=center;verticalAlign=middle;spacingLeft=4;spacingRight=4;overflow=hidden;points=[[0,0.5],[1,0.5]];portConstraint=eastwest;rotatable=0;whiteSpace=wrap;html=1;fontStyle=1;fontSize=13;container=0;" vertex="1" parent="1">
          <mxGeometry x="1080" y="558.5" width="85" height="30" as="geometry" />
        </mxCell>
        <mxCell id="xHzaHETszeEgxkePYiCe-123" style="edgeStyle=orthogonalEdgeStyle;rounded=0;orthogonalLoop=1;jettySize=auto;html=1;entryX=0.75;entryY=1;entryDx=0;entryDy=0;exitX=0;exitY=0.25;exitDx=0;exitDy=0;" edge="1" parent="1" source="xHzaHETszeEgxkePYiCe-112" target="xHzaHETszeEgxkePYiCe-110">
          <mxGeometry relative="1" as="geometry" />
        </mxCell>
        <mxCell id="xHzaHETszeEgxkePYiCe-128" value="yield()" style="edgeLabel;html=1;align=center;verticalAlign=middle;resizable=0;points=[];" vertex="1" connectable="0" parent="xHzaHETszeEgxkePYiCe-123">
          <mxGeometry x="-0.2004" y="-2" relative="1" as="geometry">
            <mxPoint x="1" y="-7" as="offset" />
          </mxGeometry>
        </mxCell>
        <mxCell id="xHzaHETszeEgxkePYiCe-124" style="edgeStyle=orthogonalEdgeStyle;rounded=0;orthogonalLoop=1;jettySize=auto;html=1;entryX=0.5;entryY=1;entryDx=0;entryDy=0;" edge="1" parent="1" source="xHzaHETszeEgxkePYiCe-112" target="xHzaHETszeEgxkePYiCe-114">
          <mxGeometry relative="1" as="geometry" />
        </mxCell>
        <mxCell id="xHzaHETszeEgxkePYiCe-129" value="sleep()&lt;div&gt;join()&lt;/div&gt;&lt;div&gt;wait()&lt;/div&gt;" style="edgeLabel;html=1;align=center;verticalAlign=middle;resizable=0;points=[];" vertex="1" connectable="0" parent="xHzaHETszeEgxkePYiCe-124">
          <mxGeometry x="-0.1397" relative="1" as="geometry">
            <mxPoint x="-27" y="-10" as="offset" />
          </mxGeometry>
        </mxCell>
        <mxCell id="xHzaHETszeEgxkePYiCe-131" style="edgeStyle=orthogonalEdgeStyle;rounded=0;orthogonalLoop=1;jettySize=auto;html=1;exitX=1;exitY=0.5;exitDx=0;exitDy=0;entryX=0.5;entryY=1;entryDx=0;entryDy=0;" edge="1" parent="1" source="xHzaHETszeEgxkePYiCe-112" target="xHzaHETszeEgxkePYiCe-117">
          <mxGeometry relative="1" as="geometry">
            <mxPoint x="1370" y="570" as="targetPoint" />
            <Array as="points">
              <mxPoint x="1370" y="628" />
              <mxPoint x="1458" y="628" />
            </Array>
          </mxGeometry>
        </mxCell>
        <mxCell id="xHzaHETszeEgxkePYiCe-112" value="" style="rounded=0;whiteSpace=wrap;html=1;strokeWidth=2;fillColor=#dae8fc;strokeColor=#6c8ebf;container=0;" vertex="1" parent="1">
          <mxGeometry x="1250" y="610" width="95" height="35" as="geometry" />
        </mxCell>
        <mxCell id="xHzaHETszeEgxkePYiCe-113" value="RUNNING" style="text;strokeColor=none;fillColor=none;align=center;verticalAlign=middle;spacingLeft=4;spacingRight=4;overflow=hidden;points=[[0,0.5],[1,0.5]];portConstraint=eastwest;rotatable=0;whiteSpace=wrap;html=1;fontStyle=1;fontSize=13;container=0;" vertex="1" parent="1">
          <mxGeometry x="1255" y="612.5" width="85" height="30" as="geometry" />
        </mxCell>
        <mxCell id="xHzaHETszeEgxkePYiCe-125" style="edgeStyle=orthogonalEdgeStyle;rounded=0;orthogonalLoop=1;jettySize=auto;html=1;entryX=0.5;entryY=0;entryDx=0;entryDy=0;" edge="1" parent="1" source="xHzaHETszeEgxkePYiCe-114" target="xHzaHETszeEgxkePYiCe-110">
          <mxGeometry relative="1" as="geometry" />
        </mxCell>
        <mxCell id="xHzaHETszeEgxkePYiCe-130" value="interrupt()&lt;div&gt;notify()&lt;/div&gt;&lt;div&gt;notifyAll()&lt;/div&gt;" style="edgeLabel;html=1;align=center;verticalAlign=middle;resizable=0;points=[];" vertex="1" connectable="0" parent="xHzaHETszeEgxkePYiCe-125">
          <mxGeometry x="-0.3089" y="1" relative="1" as="geometry">
            <mxPoint y="-29" as="offset" />
          </mxGeometry>
        </mxCell>
        <mxCell id="xHzaHETszeEgxkePYiCe-114" value="" style="rounded=0;whiteSpace=wrap;html=1;strokeWidth=2;fillColor=#dae8fc;strokeColor=#6c8ebf;container=0;" vertex="1" parent="1">
          <mxGeometry x="1250" y="500" width="95" height="35" as="geometry" />
        </mxCell>
        <mxCell id="xHzaHETszeEgxkePYiCe-115" value="WATING" style="text;strokeColor=none;fillColor=none;align=center;verticalAlign=middle;spacingLeft=4;spacingRight=4;overflow=hidden;points=[[0,0.5],[1,0.5]];portConstraint=eastwest;rotatable=0;whiteSpace=wrap;html=1;fontStyle=1;fontSize=13;container=0;" vertex="1" parent="1">
          <mxGeometry x="1255" y="502.5" width="85" height="30" as="geometry" />
        </mxCell>
        <mxCell id="xHzaHETszeEgxkePYiCe-117" value="" style="rounded=0;whiteSpace=wrap;html=1;strokeWidth=2;fillColor=#dae8fc;strokeColor=#6c8ebf;container=0;" vertex="1" parent="1">
          <mxGeometry x="1410" y="550" width="95" height="35" as="geometry" />
        </mxCell>
        <mxCell id="xHzaHETszeEgxkePYiCe-118" value="TERMINATED" style="text;strokeColor=none;fillColor=none;align=center;verticalAlign=middle;spacingLeft=4;spacingRight=4;overflow=hidden;points=[[0,0.5],[1,0.5]];portConstraint=eastwest;rotatable=0;whiteSpace=wrap;html=1;fontStyle=1;fontSize=13;container=0;" vertex="1" parent="1">
          <mxGeometry x="1410" y="552.5" width="95" height="30" as="geometry" />
        </mxCell>
      </root>
    </mxGraphModel>
  </diagram>
</mxfile>
